<svg width="151" height="132" viewBox="0 0 151 132" fill="none" xmlns="http://www.w3.org/2000/svg">
<path d="M114.788 75.7468C110.701 75.7502 106.684 74.6853 103.136 72.6577C99.5871 70.6302 96.6301 67.7103 94.5579 64.1877C92.4857 60.6651 91.3702 56.662 91.3219 52.5754C91.2737 48.4887 92.2945 44.4604 94.283 40.8899C96.2715 37.3193 99.1587 34.3305 102.658 32.2198C106.158 30.1091 110.149 28.9497 114.235 28.8567C118.32 28.7636 122.36 29.7401 125.952 31.6893C129.544 33.6386 132.564 36.4928 134.713 39.9692L133.062 40.9966C130.693 37.1684 127.182 34.1805 123.024 32.4547C118.866 30.7289 114.271 30.3522 109.888 31.3778C105.504 32.4033 101.553 34.7794 98.5925 38.1707C95.6317 41.562 93.8105 45.7974 93.3859 50.2792C92.9612 54.7611 93.9546 59.2631 96.2257 63.1502C98.4969 67.0372 101.931 70.113 106.044 71.9436C110.157 73.7742 114.741 74.2671 119.149 73.3529C123.557 72.4387 127.567 70.1635 130.613 66.8483L132.044 68.1693C129.845 70.5537 127.177 72.4578 124.208 73.7618C121.238 75.0658 118.031 75.7417 114.788 75.7468Z" fill="url(#paint0_linear_794_649)"/>
<path opacity="0.9" d="M114.898 75.7467C109.191 80.9027 101.766 83.7452 94.074 83.7186C89.027 83.7177 84.0553 82.4946 79.584 80.1539C75.1126 77.8132 71.2746 74.4244 68.3981 70.2774C65.5215 66.1304 63.6921 61.3485 63.066 56.3405C62.44 51.3325 63.0361 46.2474 64.8032 41.5199C66.5704 36.7924 69.4561 32.5632 73.2137 29.1938C76.9713 25.8244 81.4889 23.4151 86.3803 22.1719C91.2718 20.9286 96.3916 20.8884 101.302 22.0546C106.212 23.2208 110.767 25.5589 114.577 28.8688H114.825C115.577 28.8688 116.32 28.9238 117.063 28.988C112.425 24.4484 106.547 21.3838 100.169 20.1808C93.7915 18.9778 87.2004 19.6903 81.2272 22.2284C75.254 24.7665 70.1662 29.0166 66.6054 34.4426C63.0445 39.8686 61.1702 46.2275 61.2187 52.7174C61.2672 59.2073 63.2364 65.5375 66.878 70.9097C70.5196 76.2818 75.6704 80.4553 81.6809 82.9038C87.6914 85.3523 94.2924 85.9662 100.651 84.668C107.01 83.3697 112.842 80.2176 117.412 75.609C116.577 75.7025 115.738 75.7484 114.898 75.7467Z" fill="url(#paint1_linear_794_649)"/>
<path opacity="0.8" d="M98.7711 84.9845C92.7201 89.7342 85.459 92.6928 77.8116 93.5247C70.1642 94.3566 62.4368 93.0284 55.506 89.6909C48.5753 86.3534 42.7187 81.1401 38.6008 74.6427C34.4829 68.1452 32.2686 60.6236 32.209 52.9314C32.1494 45.2391 34.247 37.6842 38.2637 31.1237C42.2805 24.5632 48.0556 19.2598 54.9338 15.8154C61.812 12.3709 69.5179 10.9231 77.1772 11.6365C84.8366 12.3498 92.1427 15.1955 98.2665 19.8509C99.1105 19.961 99.9545 20.0986 100.789 20.2729C94.5973 15.0158 87.0258 11.6474 78.975 10.5683C70.9243 9.48923 62.733 10.7448 55.3751 14.1858C48.0172 17.6267 41.8022 23.1083 37.4691 29.9787C33.136 36.8492 30.867 44.8195 30.932 52.9419C30.997 61.0644 33.3932 68.9974 37.8357 75.7976C42.2781 82.5979 48.58 87.9793 55.992 91.3021C63.404 94.6249 71.6144 95.7492 79.6468 94.5415C87.6793 93.3337 95.1959 89.8447 101.303 84.4891C100.468 84.7001 99.6243 84.8653 98.7711 84.9845Z" fill="url(#paint2_linear_794_649)"/>
<path opacity="0.7" d="M83.0103 93.9292C76.5035 98.7334 68.9501 101.926 60.9702 103.244C52.9903 104.563 44.8114 103.97 37.1051 101.515C29.3987 99.0591 22.3846 94.8108 16.6386 89.1186C10.8926 83.4263 6.57862 76.4525 4.05073 68.7695C1.52285 61.0866 0.853182 52.9137 2.09672 44.9217C3.34025 36.9298 6.46152 29.3467 11.2043 22.7951C15.947 16.2434 22.176 10.91 29.3799 7.23279C36.5838 3.55553 44.557 1.63927 52.6452 1.6413C63.3228 1.60481 73.7376 4.95118 82.3956 11.2004C83.1662 11.3655 83.9185 11.5581 84.6707 11.76C75.5438 4.58143 64.2568 0.701627 52.6452 0.75145C44.312 0.739456 36.0976 2.72766 28.6923 6.54902C21.287 10.3704 14.9069 15.9133 10.0883 22.712C5.2696 29.5107 2.15305 37.3666 1.00047 45.6197C-0.152108 53.8728 0.692954 62.2819 3.46465 70.1407C6.23635 77.9994 10.8537 85.0781 16.9288 90.7821C23.0039 96.486 30.3593 100.649 38.3769 102.92C46.3945 105.192 54.8402 105.506 63.0044 103.836C71.1685 102.166 78.8127 98.5609 85.2945 93.3238C84.5423 93.5378 83.7809 93.7396 83.0103 93.9292Z" fill="url(#paint3_linear_794_649)"/>
<path d="M134.484 70.0319C131.299 70.0337 128.186 69.091 125.537 67.323C122.888 65.5551 120.823 63.0412 119.603 60.0995C118.383 57.1578 118.063 53.9203 118.683 50.7967C119.303 47.673 120.836 44.8034 123.087 42.5508C125.339 40.2983 128.207 38.764 131.331 38.1421C134.454 37.5201 137.692 37.8384 140.634 39.0567C143.576 40.275 146.091 42.3386 147.861 44.9864C149.63 47.6342 150.575 50.7473 150.575 53.932C150.57 58.1989 148.873 62.2897 145.857 65.3077C142.841 68.3258 138.751 70.0246 134.484 70.0319ZM134.484 42.2171C132.165 42.2153 129.897 42.9016 127.967 44.1891C126.038 45.4767 124.534 47.3076 123.645 49.4503C122.757 51.593 122.524 53.951 122.976 56.2261C123.428 58.5012 124.545 60.5911 126.185 62.2313C127.825 63.8715 129.915 64.9883 132.19 65.4404C134.465 65.8924 136.823 65.6595 138.966 64.771C141.108 63.8825 142.939 62.3784 144.227 60.449C145.515 58.5195 146.201 56.2515 146.199 53.932C146.194 50.8265 144.958 47.8496 142.762 45.6537C140.567 43.4577 137.59 42.2219 134.484 42.2171Z" fill="#00377B"/>
<path d="M42.3893 37.5195H37.6465V70.0221H42.3893V37.5195Z" fill="#00377B"/>
<path d="M134.484 37.8408C131.299 37.839 128.185 38.7819 125.536 40.5503C122.887 42.3187 120.822 44.8331 119.602 47.7753C118.383 50.7176 118.063 53.9555 118.684 57.0794C119.305 60.2034 120.838 63.073 123.091 65.3251C125.343 67.5773 128.212 69.1109 131.336 69.7318C134.46 70.3527 137.698 70.0331 140.64 68.8134C143.583 67.5937 146.097 65.5287 147.865 62.8797C149.634 60.2307 150.577 57.1166 150.575 53.9316C150.57 49.6655 148.873 45.5756 145.857 42.5591C142.84 39.5425 138.75 37.8457 134.484 37.8408ZM134.484 65.6556C132.165 65.6574 129.897 64.9714 127.968 63.6842C126.039 62.3971 124.535 60.5667 123.646 58.4245C122.757 56.2824 122.524 53.9248 122.975 51.65C123.426 49.3751 124.542 47.2852 126.182 45.6447C127.821 44.0041 129.91 42.8866 132.184 42.4335C134.459 41.9804 136.817 42.212 138.959 43.0991C141.102 43.9862 142.934 45.4889 144.223 47.4171C145.511 49.3453 146.199 51.6124 146.199 53.9316C146.197 57.0387 144.962 60.0179 142.766 62.2158C140.569 64.4137 137.591 65.6508 134.484 65.6556Z" fill="#00377B"/>
<path d="M73.571 40.5377C71.3448 38.5317 68.2594 37.5256 64.3147 37.5195H51.0586V70.0221H55.8014V59.4264H64.2688C68.3419 59.4264 71.4702 58.4816 73.6535 56.5918C75.8369 54.702 76.9408 52.011 76.9653 48.5189C77.0187 47.0211 76.7424 45.5299 76.1559 44.1507C75.5694 42.7716 74.6869 41.5381 73.571 40.5377ZM70.1583 53.7387C68.8006 54.9619 66.8527 55.5735 64.3147 55.5735H55.8014V41.4367H64.5899C66.632 41.3656 68.6241 42.0778 70.1583 43.4274C70.8386 44.0926 71.3702 44.8943 71.718 45.7798C72.0659 46.6653 72.2222 47.6144 72.1766 48.5647C72.2404 49.5224 72.0926 50.4824 71.7439 51.3766C71.3951 52.2707 70.8538 53.0772 70.1583 53.7387Z" fill="#00377B"/>
<path d="M101.047 53.565H88.552V37.6119C87.9404 37.5568 87.3288 37.5293 86.7173 37.5293H83.8184V70.0319H88.5704V57.6198H100.405C101.581 57.6002 102.716 58.048 103.563 58.865C104.409 59.6819 104.896 60.8013 104.918 61.9773V69.0044V70.0319H109.67V64.5276C109.67 63.9956 109.606 61.9315 109.606 61.9315C109.572 59.6897 108.653 57.5521 107.05 55.9849C105.447 54.4176 103.289 53.5478 101.047 53.565Z" fill="#00377B"/>
<path d="M135.255 62.693L124.669 47.5472C123.694 49.01 123.067 50.6761 122.834 52.4184L131.916 65.3718C132.744 65.5594 133.59 65.6548 134.439 65.6561C136.31 65.6562 138.154 65.2063 139.815 64.3443V43.5291C138.39 42.7926 136.828 42.3584 135.228 42.2539L135.255 62.693Z" fill="#8BC63F"/>
<path d="M135.255 37.5195V37.8773C136.82 37.96 138.365 38.269 139.842 38.7947V37.5195H135.255Z" fill="#8BC63F"/>
<path d="M113.036 37.5199V70.0225H117.623V45.024L119.614 47.7762C120.216 46.3272 121.025 44.9736 122.017 43.7581L117.651 37.5107L113.036 37.5199Z" fill="#8BC63F"/>
<path d="M135.21 70.0228H139.852V69.1055C138.352 69.6409 136.782 69.9501 135.191 70.0228H135.21Z" fill="#B2D33E"/>
<path d="M65.2598 59.3995L70.9658 70.0227H76.0481V69.7291L69.9109 58.6289C68.4023 59.094 66.8378 59.3532 65.2598 59.3995Z" fill="#8BC63F"/>
<path d="M88.5332 37.5938V42.3641C91.873 42.7216 95.0495 43.9932 97.7135 46.0389C100.378 48.0846 102.426 50.8254 103.633 53.9597C105.35 54.4897 106.853 55.5524 107.925 56.994C108.997 58.4356 109.583 60.1811 109.596 61.9776V59.2255C109.287 53.6849 106.985 48.4431 103.113 44.4673C99.2422 40.4915 94.0636 38.0502 88.5332 37.5938Z" fill="#8BC63F"/>
<g clip-path="url(#clip0_794_649)">
<g style="mix-blend-mode:multiply">
<path d="M129.184 98.4101C128.85 98.7778 128.44 99.0709 127.983 99.2697C127.525 99.4686 127.029 99.5688 126.529 99.5635C126.011 99.5658 125.498 99.4509 125.032 99.2275C124.578 99.0209 124.181 98.7094 123.874 98.3193C123.565 97.886 123.357 97.3893 123.268 96.8662H121.66C121.79 98.0159 122.347 99.0772 123.222 99.845C124.107 100.619 125.256 101.032 126.437 100.998C127.419 101.019 128.388 100.784 129.249 100.317C130.069 99.8617 130.742 99.1844 131.187 98.3647C131.424 97.9385 131.603 97.4836 131.72 97.0115H130.048C129.866 97.5341 129.571 98.0112 129.184 98.4101Z" fill="#EE2D67"/>
</g>
<g style="mix-blend-mode:multiply">
<path d="M130.507 91.9528C130.054 91.4864 129.506 91.1193 128.9 90.8752C128.294 90.6312 127.643 90.5157 126.989 90.5361C126.365 90.5496 125.747 90.6505 125.151 90.8358L125.942 86.6128H131.5V85.1416H124.72L123.277 92.8337C124.329 92.3401 125.468 92.0562 126.631 91.9982C127.12 91.9773 127.608 92.0533 128.067 92.2218C128.527 92.3902 128.947 92.6477 129.304 92.979C129.504 93.177 129.677 93.3998 129.818 93.6419L130.801 92.2706C130.7 92.1707 130.609 92.0527 130.507 91.9528Z" fill="#EE2D67"/>
</g>
<g style="mix-blend-mode:multiply">
<path d="M140.237 85.1416H141.1V87.6299H142.479V88.3746H141.1V94.3049H140.237V88.3565H139.052V87.6299H140.237V85.1416Z" fill="#EE2D67"/>
</g>
<g style="mix-blend-mode:multiply">
<path d="M143.783 85.042H144.656V88.8108C144.963 88.391 145.358 88.0411 145.814 87.7846C146.234 87.5602 146.705 87.4446 147.182 87.4486C147.66 87.438 148.13 87.5676 148.533 87.821C148.915 88.0738 149.214 88.4301 149.396 88.8472C149.614 89.4933 149.708 90.174 149.672 90.8542V94.287H148.808V91.1085C148.827 90.5918 148.793 90.0746 148.707 89.5646C148.652 89.1693 148.445 88.8105 148.128 88.5633C147.811 88.3161 147.41 88.1997 147.008 88.2387C146.493 88.2371 145.994 88.4174 145.602 88.7472C145.198 89.078 144.909 89.5259 144.775 90.0278C144.673 90.6276 144.633 91.2362 144.656 91.8441V94.287H143.783V85.042Z" fill="#EE2D67"/>
</g>
<g style="mix-blend-mode:multiply">
<path d="M137.738 95.5489V84.751H137.416L132.069 92.2705L131.086 93.6418L128.688 97.0202H136.185V100.653H137.738V97.0202H149.681V95.5489H137.738ZM136.185 95.5489H131.546L132.85 93.7326L136.167 89.0919L136.185 95.5489Z" fill="#EE2D67"/>
</g>
<path d="M39.4832 116.328H38.5186V110.634H39.5016L39.4832 116.328Z" fill="#00377B"/>
<path d="M44.2783 116.328H43.6168V114.012C43.6168 113.104 43.2953 112.713 42.6981 112.713C42.5429 112.709 42.3888 112.74 42.2472 112.802C42.1056 112.865 41.9802 112.959 41.8805 113.077C41.6673 113.332 41.5533 113.654 41.5589 113.985V116.301H40.8975V112.232H41.5589V112.904C41.6925 112.666 41.8901 112.468 42.1301 112.333C42.37 112.199 42.6429 112.132 42.9186 112.141C43.1118 112.129 43.3054 112.161 43.4839 112.235C43.6625 112.309 43.8212 112.423 43.9475 112.568C44.2093 112.929 44.3359 113.369 44.3058 113.812L44.2783 116.328Z" fill="#00377B"/>
<path d="M47.4294 116.292C47.2378 116.383 47.0265 116.427 46.8139 116.419C46.0881 116.419 45.7299 116.019 45.7299 115.22V112.813H45.0225V112.259H45.7299V111.242L46.3913 111.024V112.232H47.4294V112.786H46.3913V115.084C46.3738 115.287 46.422 115.491 46.5291 115.665C46.5879 115.728 46.661 115.777 46.7425 115.807C46.8239 115.837 46.9113 115.847 46.9977 115.838C47.153 115.842 47.3052 115.794 47.4294 115.701V116.292Z" fill="#00377B"/>
<path d="M51.5544 114.457H48.6237C48.6123 114.84 48.7468 115.212 49.0004 115.501C49.119 115.623 49.2619 115.719 49.4201 115.783C49.5782 115.847 49.7482 115.878 49.9191 115.874C50.3882 115.875 50.8432 115.715 51.2053 115.42V116.037C50.7771 116.312 50.273 116.449 49.7629 116.428C49.5077 116.439 49.253 116.396 49.0165 116.3C48.7801 116.205 48.5677 116.059 48.394 115.874C48.0395 115.431 47.8628 114.875 47.8979 114.312C47.8744 113.745 48.068 113.19 48.44 112.759C48.6104 112.57 48.82 112.419 49.0546 112.317C49.2893 112.215 49.5434 112.164 49.7996 112.169C50.0331 112.155 50.2666 112.194 50.4829 112.282C50.6991 112.37 50.8926 112.505 51.0491 112.677C51.3639 113.088 51.5202 113.597 51.49 114.112L51.5544 114.457ZM50.8745 113.903C50.9008 113.577 50.8025 113.253 50.5989 112.995C50.5059 112.89 50.3895 112.807 50.2588 112.753C50.1281 112.7 49.9867 112.677 49.8456 112.686C49.6982 112.684 49.5518 112.711 49.4159 112.768C49.2799 112.824 49.1572 112.908 49.0555 113.013C48.8296 113.25 48.6877 113.553 48.6513 113.876L50.8745 113.903Z" fill="#00377B"/>
<path d="M54.6966 112.922C54.551 112.824 54.3766 112.776 54.2005 112.786C54.0579 112.788 53.9181 112.825 53.7943 112.895C53.6704 112.965 53.5668 113.065 53.4931 113.186C53.2876 113.505 53.188 113.88 53.2083 114.257V116.328H52.5469V112.259H53.2175V113.059C53.2932 112.801 53.4432 112.571 53.6493 112.396C53.8234 112.235 54.054 112.147 54.2924 112.15C54.4263 112.145 54.5603 112.163 54.6874 112.205L54.6966 112.922Z" fill="#00377B"/>
<path d="M58.8124 116.327H58.151V114.011C58.151 113.103 57.8294 112.713 57.2323 112.713C57.0771 112.708 56.9229 112.739 56.7813 112.802C56.6397 112.865 56.5144 112.958 56.4146 113.076C56.1978 113.329 56.0832 113.653 56.0931 113.984V116.3H55.4316V112.231H56.0931V112.904C56.2251 112.666 56.4212 112.468 56.6595 112.334C56.8978 112.199 57.1692 112.132 57.4436 112.141C57.6383 112.127 57.8334 112.159 58.0135 112.233C58.1937 112.307 58.354 112.422 58.4817 112.568C58.7434 112.929 58.8701 113.368 58.84 113.812L58.8124 116.327Z" fill="#00377B"/>
<path d="M63.0021 116.328H62.3406V115.692C62.2211 115.921 62.0386 116.111 61.8142 116.241C61.5899 116.371 61.3328 116.436 61.0728 116.428C60.7358 116.438 60.4074 116.321 60.1541 116.101C60.0369 115.992 59.945 115.859 59.8847 115.712C59.8245 115.564 59.7973 115.406 59.805 115.247C59.805 114.484 60.2552 114.048 61.1647 113.921L62.3957 113.749C62.3957 113.058 62.1109 112.713 61.5505 112.713C61.0539 112.712 60.5737 112.889 60.2 113.213V112.55C60.6214 112.291 61.1096 112.158 61.6057 112.168C62.5703 112.168 63.0572 112.668 63.0572 113.685L63.0021 116.328ZM62.3406 114.266L61.3484 114.403C61.1044 114.426 60.8689 114.504 60.6594 114.63C60.5749 114.698 60.5088 114.786 60.4671 114.886C60.4255 114.986 60.4094 115.094 60.4205 115.202C60.4169 115.293 60.435 115.385 60.4732 115.468C60.5115 115.552 60.569 115.625 60.641 115.683C60.799 115.817 61.003 115.885 61.2106 115.874C61.362 115.879 61.5128 115.852 61.6525 115.794C61.7922 115.736 61.9173 115.649 62.0191 115.538C62.1314 115.415 62.2177 115.272 62.273 115.116C62.3282 114.96 62.3512 114.795 62.3406 114.63V114.266Z" fill="#00377B"/>
<path d="M66.1531 116.292C65.9611 116.382 65.7501 116.426 65.5376 116.419C64.8118 116.419 64.4535 116.019 64.4535 115.22V112.813H63.7461V112.259H64.4535V111.242L65.1149 111.024V112.232H66.1531V112.786H65.1609V115.084C65.1434 115.287 65.1916 115.491 65.2987 115.665C65.3575 115.728 65.4306 115.777 65.512 115.807C65.5935 115.837 65.6809 115.847 65.7672 115.838C65.9223 115.84 66.0738 115.792 66.199 115.701L66.1531 116.292Z" fill="#00377B"/>
<path d="M67.3654 111.242C67.3092 111.245 67.2531 111.236 67.2007 111.215C67.1482 111.195 67.1005 111.165 67.0608 111.125C67.021 111.086 66.99 111.039 66.9697 110.987C66.9493 110.935 66.9402 110.88 66.9428 110.824C66.941 110.768 66.9506 110.711 66.9711 110.658C66.9916 110.605 67.0226 110.557 67.0623 110.516C67.1449 110.44 67.253 110.398 67.3654 110.397C67.4807 110.397 67.5919 110.44 67.6778 110.516C67.7175 110.557 67.7484 110.605 67.769 110.658C67.7895 110.711 67.7991 110.768 67.7972 110.824C67.7994 110.88 67.79 110.935 67.7694 110.987C67.7488 111.038 67.7176 111.085 67.6778 111.124C67.6363 111.163 67.5873 111.194 67.5336 111.214C67.48 111.234 67.4228 111.244 67.3654 111.242ZM67.687 116.346H66.9979V112.277H67.6594L67.687 116.346Z" fill="#00377B"/>
<path d="M70.7466 116.427C70.4761 116.439 70.2061 116.394 69.9543 116.295C69.7026 116.197 69.4748 116.047 69.2859 115.855C68.9129 115.438 68.7185 114.894 68.7439 114.338C68.7271 114.048 68.7688 113.757 68.8665 113.483C68.9643 113.208 69.1162 112.956 69.3135 112.74C69.5138 112.546 69.7528 112.394 70.0153 112.296C70.2778 112.197 70.5581 112.154 70.8385 112.168C71.1052 112.151 71.3724 112.192 71.6215 112.287C71.8707 112.383 72.0957 112.531 72.2808 112.722C72.6446 113.157 72.8284 113.711 72.7953 114.275C72.8105 114.559 72.7688 114.843 72.6726 115.111C72.5764 115.379 72.4277 115.626 72.2349 115.837C72.0438 116.034 71.8121 116.189 71.5554 116.291C71.2987 116.393 71.0229 116.439 70.7466 116.427ZM70.7466 112.713C70.558 112.705 70.3701 112.739 70.1967 112.813C70.0234 112.887 69.8691 112.999 69.7452 113.14C69.4786 113.475 69.3447 113.894 69.3686 114.32C69.3457 114.732 69.4801 115.137 69.7452 115.455C69.8704 115.594 70.0252 115.703 70.1983 115.776C70.3715 115.848 70.5588 115.881 70.7466 115.873C70.9311 115.883 71.1156 115.852 71.286 115.781C71.4564 115.71 71.6081 115.602 71.7296 115.464C71.974 115.127 72.094 114.716 72.0696 114.302C72.0983 113.881 71.9781 113.464 71.7296 113.121C71.613 112.99 71.4688 112.885 71.3069 112.814C71.145 112.744 70.9695 112.709 70.7926 112.713H70.7466Z" fill="#00377B"/>
<path d="M77.2603 116.327H76.6081V114.011C76.6081 113.103 76.2865 112.713 75.6434 112.713C75.4884 112.71 75.3347 112.741 75.1933 112.804C75.0519 112.866 74.9264 112.959 74.8258 113.076C74.6126 113.331 74.4986 113.653 74.5042 113.984V116.3H73.8428V112.231H74.5042V112.904C74.6363 112.666 74.8323 112.468 75.0706 112.334C75.309 112.199 75.5803 112.132 75.8547 112.141C76.048 112.127 76.2418 112.159 76.4205 112.233C76.5992 112.307 76.7578 112.422 76.8837 112.567C77.1454 112.929 77.272 113.368 77.242 113.812L77.2603 116.327Z" fill="#00377B"/>
<path d="M81.4493 116.328H80.7786V115.692C80.6591 115.92 80.4766 116.111 80.2522 116.241C80.0279 116.371 79.7708 116.436 79.5108 116.428C79.3362 116.438 79.1611 116.415 78.9956 116.359C78.8301 116.303 78.6774 116.215 78.5462 116.101C78.4304 115.991 78.3395 115.858 78.2793 115.711C78.2192 115.564 78.1911 115.406 78.1971 115.247C78.1971 114.484 78.6564 114.048 79.5568 113.921L80.797 113.749C80.797 113.058 80.5122 112.713 79.9426 112.713C79.4488 112.712 78.9717 112.89 78.6013 113.213V112.55C79.0198 112.292 79.5047 112.16 79.9977 112.168C80.9715 112.168 81.4493 112.668 81.4493 113.685V116.328ZM80.797 114.266L79.7956 114.402C79.5516 114.426 79.3161 114.504 79.1066 114.629C79.0237 114.699 78.9594 114.787 78.9194 114.887C78.8793 114.987 78.8647 115.095 78.8769 115.202C78.8736 115.292 78.8908 115.383 78.9274 115.466C78.9639 115.549 79.0189 115.623 79.0882 115.683C79.2504 115.816 79.4568 115.883 79.667 115.874C79.8182 115.878 79.9687 115.85 80.1081 115.792C80.2476 115.734 80.3729 115.648 80.4754 115.538C80.5878 115.415 80.6741 115.272 80.7293 115.116C80.7846 114.96 80.8076 114.794 80.797 114.629V114.266Z" fill="#00377B"/>
<path d="M83.3509 116.328H82.6895V110.334H83.3509V116.328Z" fill="#00377B"/>
<path d="M87.9353 114.266V116.327H87.0166V110.633H88.7621C89.3151 110.596 89.863 110.757 90.3055 111.087C90.4876 111.248 90.6309 111.448 90.7247 111.671C90.8185 111.894 90.8605 112.135 90.8476 112.377C90.8529 112.629 90.805 112.88 90.707 113.113C90.6089 113.346 90.4628 113.556 90.278 113.73C89.854 114.101 89.3001 114.293 88.7346 114.266H87.9353ZM87.9353 111.405V113.494H88.56C88.89 113.508 89.2148 113.409 89.4787 113.212C89.5876 113.11 89.6727 112.986 89.7283 112.848C89.7838 112.71 89.8083 112.561 89.8003 112.413C89.8003 111.741 89.4052 111.405 88.6151 111.405H87.9353Z" fill="#00377B"/>
<path d="M95.3495 116.328H94.4308V114.103C94.4308 113.295 94.1553 112.895 93.6132 112.895C93.478 112.895 93.3446 112.926 93.2246 112.988C93.1046 113.05 93.0015 113.139 92.9242 113.249C92.7205 113.507 92.6192 113.83 92.6394 114.157V116.346H91.7207V110.334H92.6394V112.959C92.7684 112.722 92.9612 112.526 93.1963 112.391C93.4315 112.256 93.6998 112.189 93.9715 112.196C94.8902 112.196 95.3404 112.741 95.3404 113.849L95.3495 116.328Z" fill="#00377B"/>
<path d="M99.8236 112.259L97.9311 116.982C97.5912 117.826 97.1134 118.244 96.5071 118.244C96.3612 118.248 96.2155 118.23 96.0753 118.189V117.599C96.1992 117.643 96.3295 117.668 96.4612 117.672C96.6337 117.665 96.7995 117.604 96.9348 117.498C97.0702 117.392 97.1681 117.246 97.2145 117.081L97.5452 116.309L95.9375 112.25H96.6633L97.7749 115.383C97.7749 115.383 97.8208 115.528 97.8668 115.692L97.9495 115.392L99.1162 112.25L99.8236 112.259Z" fill="#00377B"/>
<path d="M100.273 116.183V115.483C100.618 115.739 101.037 115.877 101.468 115.874C102.047 115.874 102.331 115.683 102.331 115.302C102.333 115.206 102.308 115.111 102.258 115.029C102.205 114.95 102.136 114.882 102.056 114.83C101.965 114.763 101.867 114.708 101.762 114.666L101.394 114.521C101.227 114.463 101.064 114.394 100.907 114.312C100.782 114.244 100.667 114.159 100.567 114.058C100.476 113.97 100.404 113.865 100.356 113.749C100.306 113.618 100.282 113.48 100.283 113.34C100.277 113.161 100.325 112.984 100.42 112.832C100.504 112.684 100.624 112.559 100.77 112.468C100.923 112.364 101.094 112.287 101.275 112.241C101.48 112.179 101.694 112.149 101.909 112.15C102.224 112.147 102.537 112.209 102.827 112.332V112.986C102.514 112.791 102.15 112.69 101.78 112.695C101.671 112.676 101.559 112.676 101.449 112.695C101.358 112.718 101.272 112.755 101.192 112.804C101.125 112.853 101.069 112.915 101.027 112.986C100.99 113.059 100.971 113.14 100.972 113.222C100.965 113.311 100.983 113.4 101.024 113.48C101.064 113.56 101.125 113.628 101.201 113.676C101.286 113.739 101.379 113.791 101.477 113.831L101.835 113.976C102.019 114.049 102.184 114.112 102.331 114.185C102.462 114.258 102.585 114.343 102.699 114.439C102.799 114.525 102.88 114.63 102.938 114.748C102.987 114.885 103.012 115.029 103.011 115.175C103.019 115.359 102.974 115.541 102.883 115.701C102.79 115.849 102.668 115.975 102.524 116.074C102.361 116.17 102.184 116.243 102.001 116.292C101.799 116.34 101.592 116.364 101.385 116.364C101.005 116.395 100.623 116.332 100.273 116.183Z" fill="#00377B"/>
<path d="M104.352 111.242C104.298 111.243 104.244 111.233 104.193 111.213C104.143 111.192 104.097 111.162 104.058 111.124C104.017 111.085 103.985 111.039 103.963 110.987C103.94 110.936 103.929 110.88 103.93 110.824C103.93 110.767 103.941 110.71 103.963 110.657C103.985 110.604 104.017 110.556 104.058 110.516C104.138 110.442 104.243 110.399 104.352 110.398C104.468 110.396 104.58 110.438 104.665 110.516C104.706 110.556 104.738 110.604 104.76 110.657C104.782 110.71 104.793 110.767 104.793 110.824C104.793 110.881 104.782 110.937 104.759 110.989C104.737 111.04 104.704 111.087 104.663 111.126C104.622 111.165 104.573 111.196 104.52 111.216C104.466 111.236 104.409 111.245 104.352 111.242ZM104.674 116.346H104.022V112.277H104.665L104.674 116.346Z" fill="#00377B"/>
<path d="M108.817 116.146C108.476 116.338 108.089 116.435 107.697 116.428C107.432 116.44 107.167 116.395 106.921 116.296C106.675 116.197 106.454 116.047 106.273 115.856C105.904 115.458 105.709 114.932 105.731 114.393C105.715 114.099 105.759 113.804 105.86 113.527C105.961 113.249 106.117 112.994 106.319 112.777C106.518 112.572 106.76 112.411 107.028 112.306C107.296 112.201 107.583 112.154 107.871 112.169C108.188 112.167 108.501 112.232 108.79 112.359V113.059C108.504 112.854 108.16 112.743 107.807 112.741C107.613 112.735 107.42 112.772 107.242 112.849C107.064 112.926 106.906 113.041 106.778 113.186C106.496 113.511 106.352 113.93 106.374 114.357C106.348 114.769 106.483 115.175 106.75 115.492C106.881 115.628 107.04 115.735 107.216 115.806C107.391 115.876 107.581 115.909 107.77 115.901C108.138 115.899 108.494 115.774 108.781 115.547L108.817 116.146Z" fill="#00377B"/>
<path d="M109.571 116.182V115.483C109.911 115.739 110.328 115.876 110.756 115.874C111.335 115.874 111.62 115.683 111.62 115.301C111.621 115.206 111.596 115.111 111.546 115.029C111.496 114.947 111.426 114.879 111.344 114.829C111.254 114.762 111.155 114.707 111.05 114.666L110.682 114.52C110.515 114.463 110.352 114.393 110.196 114.312C110.07 114.244 109.955 114.158 109.856 114.057C109.764 113.97 109.692 113.865 109.644 113.748C109.595 113.618 109.57 113.479 109.571 113.34C109.565 113.161 109.613 112.984 109.709 112.831C109.792 112.683 109.913 112.558 110.058 112.468C110.211 112.363 110.382 112.286 110.563 112.241C110.755 112.189 110.952 112.165 111.151 112.168C111.467 112.165 111.779 112.227 112.07 112.35V113.004C111.756 112.809 111.393 112.708 111.022 112.713C110.913 112.693 110.801 112.693 110.692 112.713C110.601 112.736 110.514 112.773 110.434 112.822C110.37 112.873 110.314 112.935 110.269 113.004C110.232 113.077 110.213 113.158 110.214 113.24C110.21 113.331 110.229 113.421 110.269 113.503C110.315 113.577 110.374 113.642 110.444 113.694C110.529 113.757 110.621 113.808 110.719 113.848L111.077 113.994C111.261 114.066 111.427 114.13 111.574 114.203C111.705 114.273 111.829 114.359 111.941 114.457C112.041 114.543 112.122 114.648 112.18 114.766C112.237 114.901 112.265 115.046 112.263 115.192C112.267 115.377 112.22 115.56 112.125 115.719C112.033 115.866 111.911 115.993 111.766 116.092C111.603 116.187 111.427 116.261 111.243 116.309C111.041 116.358 110.835 116.382 110.627 116.382C110.264 116.401 109.902 116.332 109.571 116.182Z" fill="#00377B"/>
<path d="M117.986 116.428C117.614 116.442 117.243 116.379 116.898 116.241C116.553 116.103 116.241 115.894 115.983 115.628C115.473 115.056 115.206 114.311 115.239 113.549C115.199 112.747 115.472 111.96 116.002 111.351C116.268 111.075 116.591 110.86 116.95 110.718C117.308 110.577 117.693 110.514 118.078 110.534C118.443 110.519 118.807 110.583 119.145 110.721C119.483 110.859 119.787 111.068 120.035 111.333C120.54 111.904 120.803 112.646 120.77 113.403C120.818 114.208 120.548 114.999 120.016 115.61C119.757 115.883 119.442 116.096 119.091 116.237C118.741 116.378 118.364 116.443 117.986 116.428ZM117.986 111.369C117.741 111.362 117.498 111.411 117.274 111.512C117.051 111.612 116.855 111.763 116.7 111.95C116.353 112.386 116.177 112.931 116.204 113.485C116.179 114.037 116.351 114.581 116.691 115.02C116.841 115.206 117.033 115.355 117.252 115.456C117.47 115.556 117.709 115.606 117.949 115.601C118.195 115.612 118.44 115.567 118.666 115.472C118.892 115.376 119.093 115.231 119.254 115.047C119.596 114.606 119.766 114.058 119.732 113.503C119.766 112.94 119.604 112.382 119.272 111.923C119.12 111.744 118.928 111.6 118.712 111.505C118.495 111.409 118.26 111.362 118.023 111.369H117.986Z" fill="#00377B"/>
<path d="M122.441 116.328H121.789V110.334H122.441V116.328Z" fill="#00377B"/>
<path d="M127.053 112.259L125.161 116.982C124.821 117.826 124.352 118.244 123.737 118.244C123.591 118.247 123.445 118.229 123.305 118.189V117.599C123.432 117.643 123.565 117.667 123.7 117.672C123.871 117.664 124.036 117.603 124.169 117.497C124.303 117.391 124.399 117.245 124.444 117.081L124.775 116.309L123.167 112.25H123.902L125.014 115.383L125.096 115.692C125.096 115.628 125.096 115.528 125.17 115.392L126.346 112.25L127.053 112.259Z" fill="#00377B"/>
<path d="M133.603 116.327H132.942V113.966C132.969 113.627 132.899 113.287 132.74 112.985C132.654 112.881 132.544 112.799 132.419 112.747C132.294 112.695 132.158 112.674 132.023 112.686C131.882 112.69 131.744 112.727 131.62 112.794C131.495 112.86 131.388 112.953 131.306 113.067C131.109 113.329 131.006 113.649 131.012 113.975V116.291H130.388V113.875C130.388 113.076 130.082 112.676 129.469 112.676C129.33 112.679 129.193 112.713 129.068 112.776C128.944 112.839 128.836 112.929 128.752 113.04C128.563 113.305 128.466 113.624 128.477 113.948V116.264H127.815V112.195H128.477V112.84C128.598 112.611 128.782 112.42 129.008 112.29C129.234 112.16 129.493 112.095 129.754 112.104C130.017 112.098 130.276 112.178 130.489 112.331C130.694 112.484 130.845 112.697 130.921 112.94C131.042 112.701 131.229 112.501 131.459 112.361C131.69 112.221 131.955 112.148 132.225 112.15C133.144 112.15 133.585 112.695 133.585 113.803L133.603 116.327Z" fill="#00377B"/>
<path d="M135.523 115.783V118.244H134.871V112.305H135.523V113.022C135.661 112.769 135.867 112.56 136.118 112.417C136.37 112.274 136.657 112.204 136.947 112.214C137.183 112.202 137.418 112.245 137.633 112.339C137.849 112.434 138.039 112.578 138.188 112.759C138.507 113.179 138.666 113.696 138.638 114.221C138.67 114.808 138.491 115.387 138.132 115.856C137.969 116.058 137.761 116.219 137.523 116.326C137.285 116.433 137.025 116.484 136.764 116.473C136.513 116.478 136.267 116.416 136.049 116.295C135.831 116.173 135.649 115.997 135.523 115.783ZM135.523 114.148V114.711C135.518 115.029 135.64 115.336 135.863 115.565C135.968 115.68 136.098 115.772 136.242 115.833C136.386 115.894 136.542 115.924 136.699 115.919C136.879 115.925 137.057 115.887 137.217 115.808C137.378 115.728 137.515 115.611 137.618 115.465C137.867 115.095 137.986 114.655 137.958 114.212C137.981 113.83 137.871 113.452 137.646 113.14C137.541 113.015 137.409 112.915 137.259 112.849C137.109 112.782 136.946 112.752 136.782 112.759C136.609 112.751 136.436 112.782 136.277 112.85C136.118 112.918 135.977 113.02 135.863 113.149C135.631 113.414 135.503 113.753 135.505 114.103L135.523 114.148Z" fill="#00377B"/>
<path d="M140.025 111.242C139.97 111.243 139.914 111.233 139.862 111.213C139.81 111.193 139.762 111.163 139.722 111.124C139.682 111.085 139.651 111.038 139.631 110.987C139.61 110.935 139.601 110.88 139.603 110.824C139.601 110.768 139.611 110.711 139.631 110.658C139.652 110.605 139.683 110.557 139.722 110.516C139.806 110.442 139.913 110.4 140.025 110.397C140.141 110.397 140.252 110.44 140.338 110.516C140.379 110.556 140.411 110.604 140.433 110.657C140.455 110.71 140.467 110.767 140.466 110.824C140.467 110.88 140.456 110.936 140.434 110.987C140.411 111.039 140.379 111.085 140.338 111.124C140.296 111.163 140.247 111.194 140.194 111.214C140.14 111.234 140.083 111.244 140.025 111.242ZM140.347 116.346H139.695V112.277H140.347V116.346Z" fill="#00377B"/>
<path d="M144.628 116.328H143.966V115.692C143.846 115.92 143.663 116.109 143.439 116.239C143.215 116.37 142.958 116.435 142.698 116.428C142.524 116.438 142.349 116.415 142.183 116.359C142.018 116.303 141.865 116.215 141.734 116.101C141.618 115.991 141.527 115.858 141.467 115.711C141.407 115.564 141.379 115.406 141.385 115.247C141.385 114.484 141.844 114.048 142.744 113.921L143.975 113.749C143.975 113.058 143.7 112.713 143.13 112.713C142.636 112.71 142.158 112.888 141.789 113.213V112.55C142.207 112.292 142.692 112.16 143.185 112.168C144.159 112.168 144.637 112.668 144.637 113.685L144.628 116.328ZM143.966 114.266L142.974 114.402C142.73 114.426 142.494 114.504 142.285 114.629C142.202 114.699 142.138 114.787 142.098 114.887C142.058 114.987 142.043 115.095 142.055 115.202C142.052 115.292 142.069 115.383 142.106 115.466C142.142 115.549 142.197 115.623 142.267 115.683C142.429 115.816 142.635 115.883 142.845 115.874C142.996 115.878 143.147 115.85 143.286 115.792C143.426 115.734 143.551 115.647 143.654 115.538C143.765 115.415 143.85 115.271 143.904 115.115C143.957 114.959 143.978 114.794 143.966 114.629V114.266Z" fill="#00377B"/>
<path d="M149.387 116.328H148.762V115.638C148.627 115.889 148.421 116.096 148.171 116.236C147.92 116.376 147.635 116.442 147.347 116.428C147.112 116.435 146.877 116.388 146.663 116.292C146.448 116.196 146.258 116.053 146.107 115.874C145.782 115.449 145.619 114.925 145.648 114.393C145.613 113.81 145.796 113.235 146.162 112.777C146.327 112.578 146.537 112.419 146.774 112.313C147.012 112.208 147.271 112.158 147.531 112.168C147.778 112.153 148.024 112.206 148.241 112.322C148.459 112.437 148.639 112.611 148.762 112.822V110.334H149.424L149.387 116.328ZM148.725 114.511V113.912C148.729 113.76 148.701 113.608 148.645 113.466C148.588 113.324 148.503 113.195 148.395 113.086C148.289 112.972 148.16 112.881 148.015 112.822C147.871 112.762 147.715 112.735 147.559 112.741C147.382 112.737 147.206 112.775 147.047 112.85C146.887 112.926 146.748 113.038 146.64 113.177C146.389 113.529 146.266 113.954 146.291 114.384C146.268 114.78 146.385 115.172 146.622 115.492C146.73 115.628 146.871 115.736 147.031 115.807C147.19 115.879 147.365 115.911 147.54 115.901C147.714 115.91 147.886 115.879 148.046 115.812C148.205 115.744 148.346 115.641 148.459 115.51C148.688 115.219 148.796 114.852 148.762 114.484L148.725 114.511Z" fill="#00377B"/>
<path d="M39.7129 129.641H38.5186V122.621H39.7312L39.7129 129.641Z" fill="#00377B"/>
<path d="M45.2894 125.709C45.1155 125.588 44.9045 125.53 44.6923 125.546C44.5223 125.547 44.3552 125.59 44.2061 125.671C44.057 125.752 43.9305 125.868 43.8379 126.009C43.5906 126.372 43.4712 126.806 43.498 127.244V129.641H42.3496V124.628H43.498V125.664C43.5944 125.352 43.7794 125.075 44.0308 124.864C44.2437 124.671 44.5225 124.564 44.8117 124.565C44.9741 124.556 45.1358 124.591 45.2803 124.665L45.2894 125.709Z" fill="#00377B"/>
<path d="M51.0128 129.641H49.9011V128.86C49.7681 129.088 49.5864 129.285 49.3687 129.437C49.1509 129.589 48.9023 129.693 48.64 129.74C48.3778 129.788 48.1083 129.778 47.8501 129.712C47.5919 129.647 47.3513 129.526 47.145 129.359C47.0052 129.22 46.8956 129.054 46.823 128.871C46.7503 128.688 46.7161 128.493 46.7224 128.297C46.7224 127.389 47.2736 126.798 48.3761 126.644L49.8827 126.426C49.8827 125.718 49.5428 125.354 48.8538 125.354C48.2506 125.355 47.6687 125.575 47.2185 125.972V124.982C47.776 124.662 48.4114 124.499 49.0559 124.51C49.3144 124.472 49.5781 124.495 49.8263 124.575C50.0745 124.656 50.3005 124.792 50.4866 124.973C50.6726 125.154 50.8136 125.376 50.8985 125.62C50.9834 125.864 51.01 126.124 50.976 126.38L51.0128 129.641ZM49.9011 127.18L48.8354 127.325C48.5731 127.35 48.3193 127.431 48.0913 127.561C48.0028 127.635 47.9338 127.729 47.8906 127.835C47.8474 127.941 47.8311 128.056 47.8432 128.17C47.8392 128.269 47.8577 128.368 47.8975 128.459C47.9372 128.55 47.9972 128.631 48.0729 128.696C48.2467 128.835 48.4655 128.906 48.6884 128.896C48.8594 128.908 49.0307 128.881 49.1898 128.818C49.3488 128.755 49.4915 128.658 49.6071 128.533C49.8355 128.285 49.9574 127.96 49.9471 127.625L49.9011 127.18Z" fill="#00377B"/>
<path d="M57.9487 129.641H56.8003V126.817C56.8003 125.909 56.4604 125.409 55.7898 125.409C55.6256 125.407 55.463 125.441 55.3137 125.509C55.1644 125.576 55.032 125.676 54.9262 125.8C54.694 126.074 54.5729 126.423 54.5863 126.781V129.641H53.4287V124.628H54.5863V125.464C54.752 125.18 54.9923 124.945 55.2818 124.786C55.5713 124.626 55.8992 124.546 56.2307 124.556C56.4684 124.541 56.7061 124.582 56.9248 124.675C57.1435 124.768 57.3369 124.911 57.4894 125.091C57.812 125.537 57.9679 126.08 57.9303 126.626L57.9487 129.641Z" fill="#00377B"/>
<path d="M64.7842 131.221V121.749H65.3721V131.221H64.7842Z" fill="#8BC63F"/>
<path d="M73.4285 129.641H72.2158V122.621H73.4285V129.641Z" fill="#00377B"/>
<path d="M75.7442 129.487V128.433C76.1496 128.749 76.6519 128.919 77.1682 128.915C77.8572 128.915 78.2063 128.715 78.2063 128.306C78.2097 128.202 78.1773 128.099 78.1144 128.016C78.0477 127.933 77.9669 127.862 77.8755 127.807C77.7633 127.738 77.643 127.683 77.5173 127.643L77.0579 127.471C76.8663 127.397 76.6792 127.312 76.4975 127.216C76.3435 127.133 76.2039 127.025 76.0841 126.899C75.9744 126.787 75.8899 126.654 75.836 126.508C75.774 126.342 75.7429 126.167 75.7442 125.99C75.7431 125.767 75.8034 125.547 75.9187 125.355C76.0411 125.17 76.2006 125.012 76.3873 124.892C76.5902 124.762 76.8138 124.666 77.0487 124.61C77.3006 124.544 77.5599 124.511 77.8204 124.51C78.2492 124.505 78.6755 124.575 79.079 124.719V125.718C78.7168 125.473 78.2865 125.346 77.848 125.355C77.7148 125.35 77.5816 125.365 77.453 125.4C77.3484 125.421 77.2486 125.461 77.159 125.518C77.0816 125.567 77.0158 125.632 76.966 125.709C76.9183 125.782 76.8928 125.867 76.8925 125.954C76.8929 126.05 76.9182 126.143 76.966 126.226C77.019 126.306 77.0877 126.374 77.1682 126.426C77.2729 126.488 77.3837 126.54 77.4989 126.581L77.9307 126.735C78.1324 126.813 78.3288 126.904 78.5186 127.007C78.6802 127.088 78.8288 127.192 78.9596 127.316C79.0854 127.425 79.1831 127.562 79.2444 127.716C79.3138 127.889 79.3481 128.074 79.3455 128.261C79.3479 128.493 79.2877 128.722 79.1709 128.924C79.048 129.113 78.885 129.274 78.6932 129.396C78.4799 129.523 78.2472 129.615 78.0042 129.668C77.7364 129.731 77.4618 129.762 77.1865 129.759C76.6915 129.772 76.1997 129.679 75.7442 129.487Z" fill="#00377B"/>
<path d="M84.316 123.148C84.1572 123.056 83.9761 123.009 83.7923 123.012C83.2319 123.012 82.9471 123.321 82.9471 123.92V124.601H84.1322V125.509H82.9563V129.632H81.8079V125.509H80.9443V124.601H81.8079V123.784C81.7957 123.551 81.8364 123.318 81.927 123.103C82.0177 122.888 82.1559 122.695 82.3316 122.54C82.6943 122.226 83.1639 122.061 83.6453 122.076C83.8732 122.068 84.1006 122.102 84.316 122.176V123.148Z" fill="#00377B"/>
<path d="M89.8549 129.641H88.7433V128.86C88.5983 129.14 88.3767 129.373 88.1037 129.534C87.8307 129.695 87.5174 129.776 87.1999 129.769C86.7703 129.791 86.3489 129.648 86.0239 129.369C85.8841 129.23 85.7746 129.064 85.7019 128.881C85.6292 128.698 85.595 128.503 85.6013 128.306C85.6013 127.398 86.1525 126.808 87.255 126.654L88.7616 126.436C88.7616 125.727 88.4217 125.364 87.7327 125.364C87.1295 125.365 86.5476 125.585 86.0974 125.982V124.992C86.6549 124.672 87.2903 124.508 87.9348 124.519C88.1933 124.482 88.457 124.505 88.7052 124.585C88.9534 124.665 89.1794 124.802 89.3655 124.983C89.5515 125.164 89.6925 125.386 89.7774 125.63C89.8624 125.874 89.8889 126.134 89.8549 126.39V129.641ZM88.7433 127.18L87.6776 127.326C87.4153 127.351 87.1615 127.431 86.9334 127.562C86.8449 127.635 86.776 127.729 86.7328 127.835C86.6895 127.942 86.6732 128.057 86.6854 128.17C86.6813 128.269 86.6999 128.368 86.7396 128.459C86.7794 128.551 86.8393 128.632 86.9151 128.697C87.0889 128.835 87.3077 128.906 87.5306 128.897C87.6939 128.902 87.8564 128.872 88.007 128.809C88.1576 128.746 88.2927 128.652 88.4033 128.533C88.6317 128.286 88.7536 127.96 88.7433 127.625V127.18Z" fill="#00377B"/>
<path d="M96.7823 129.641H95.6339V126.916C95.6339 125.926 95.294 125.427 94.6233 125.427C94.4575 125.428 94.2942 125.468 94.1471 125.543C94.0001 125.619 93.8735 125.729 93.7781 125.863C93.533 126.176 93.4092 126.566 93.429 126.962V129.686H92.2715V122.267H93.429V125.509C93.5947 125.225 93.8351 124.99 94.1246 124.83C94.4141 124.671 94.742 124.591 95.0735 124.601C96.2035 124.601 96.7639 125.282 96.7639 126.644L96.7823 129.641Z" fill="#00377B"/>
<path d="M103.084 129.641H101.973V128.86C101.828 129.14 101.606 129.373 101.333 129.534C101.06 129.695 100.747 129.776 100.429 129.769C99.9999 129.791 99.5784 129.648 99.2534 129.369C99.1136 129.23 99.004 129.064 98.9314 128.881C98.8587 128.698 98.8245 128.503 98.8308 128.306C98.8308 127.398 99.3821 126.808 100.484 126.654L101.991 126.436C101.991 125.727 101.651 125.364 100.962 125.364C100.359 125.365 99.7771 125.585 99.3269 125.982V124.992C99.8844 124.672 100.52 124.508 101.164 124.519C101.423 124.482 101.686 124.505 101.935 124.585C102.183 124.665 102.409 124.802 102.595 124.983C102.781 125.164 102.922 125.386 103.007 125.63C103.092 125.874 103.118 126.134 103.084 126.39V129.641ZM101.973 127.18L100.907 127.326C100.645 127.351 100.391 127.431 100.163 127.562C100.074 127.635 100.006 127.729 99.9623 127.835C99.919 127.942 99.9027 128.057 99.9149 128.17C99.9108 128.269 99.9294 128.368 99.9691 128.459C100.009 128.551 100.069 128.632 100.145 128.697C100.318 128.835 100.537 128.906 100.76 128.897C100.923 128.902 101.086 128.872 101.236 128.809C101.387 128.746 101.522 128.652 101.633 128.533C101.861 128.286 101.983 127.96 101.973 127.625V127.18Z" fill="#00377B"/>
<path d="M110.021 129.641H108.873V126.817C108.873 125.908 108.533 125.409 107.862 125.409C107.698 125.407 107.535 125.441 107.386 125.508C107.237 125.576 107.104 125.675 106.998 125.799C106.766 126.073 106.645 126.423 106.659 126.78V129.641H105.501V124.628H106.659V125.463C106.824 125.179 107.065 124.945 107.354 124.785C107.644 124.625 107.971 124.546 108.303 124.555C108.542 124.542 108.78 124.583 109 124.676C109.22 124.769 109.416 124.911 109.571 125.091C109.886 125.54 110.038 126.081 110.003 126.626L110.021 129.641Z" fill="#00377B"/>
<path d="M116.865 131.221V121.749H117.444V131.221H116.865Z" fill="#8BC63F"/>
<path d="M128.744 129.641H124.288V129.096C124.285 128.886 124.316 128.678 124.38 128.478C124.441 128.283 124.528 128.097 124.637 127.924C124.738 127.749 124.862 127.587 125.005 127.443C125.149 127.286 125.302 127.137 125.464 126.998L125.96 126.589L126.447 126.19C126.603 126.063 126.741 125.935 126.87 125.817C126.985 125.697 127.092 125.57 127.191 125.436C127.277 125.306 127.344 125.165 127.393 125.018C127.45 124.867 127.478 124.707 127.476 124.546C127.477 124.381 127.446 124.218 127.384 124.065C127.332 123.931 127.251 123.81 127.145 123.71C127.037 123.619 126.913 123.548 126.778 123.502C126.626 123.454 126.468 123.429 126.309 123.429C125.991 123.43 125.677 123.502 125.391 123.638C125.068 123.783 124.775 123.986 124.527 124.237V123.147C124.808 122.941 125.117 122.776 125.446 122.657C125.611 122.606 125.78 122.566 125.951 122.539C126.135 122.525 126.319 122.525 126.502 122.539C126.814 122.532 127.124 122.575 127.421 122.666C127.669 122.737 127.898 122.861 128.092 123.029C128.281 123.197 128.429 123.405 128.524 123.638C128.627 123.901 128.677 124.182 128.671 124.464C128.673 124.725 128.639 124.985 128.569 125.236C128.497 125.46 128.395 125.674 128.266 125.872C128.128 126.073 127.968 126.259 127.789 126.426C127.605 126.607 127.403 126.78 127.173 126.971L126.603 127.416C126.425 127.549 126.253 127.692 126.089 127.843C125.951 127.968 125.827 128.108 125.721 128.26C125.629 128.38 125.577 128.527 125.574 128.678H128.781L128.744 129.641Z" fill="#00377B"/>
<path d="M133.19 129.759C132.846 129.77 132.505 129.692 132.2 129.532C131.896 129.373 131.639 129.138 131.454 128.851C130.992 128.068 130.778 127.167 130.838 126.263C130.773 125.283 130.996 124.305 131.481 123.448C131.679 123.146 131.952 122.901 132.274 122.734C132.596 122.567 132.955 122.484 133.319 122.494C134.881 122.494 135.661 123.705 135.661 126.127C135.723 127.08 135.493 128.029 135 128.851C134.799 129.14 134.528 129.374 134.212 129.533C133.896 129.692 133.544 129.769 133.19 129.759ZM133.3 123.402C132.437 123.402 132.005 124.31 132.005 126.217C132.005 128.125 132.428 128.851 133.273 128.851C134.118 128.851 134.522 127.943 134.522 126.172C134.522 124.401 134.118 123.411 133.3 123.411V123.402Z" fill="#00377B"/>
<path d="M142.037 129.641H137.581V129.096C137.578 128.887 137.609 128.678 137.673 128.478C137.734 128.284 137.821 128.097 137.93 127.925C138.034 127.751 138.158 127.59 138.298 127.443C138.445 127.289 138.592 127.143 138.757 126.998L139.253 126.59L139.749 126.19L140.163 125.818C140.278 125.697 140.385 125.57 140.484 125.436C140.573 125.306 140.644 125.166 140.696 125.018C140.745 124.866 140.769 124.706 140.769 124.546C140.77 124.381 140.739 124.218 140.677 124.065C140.625 123.931 140.544 123.81 140.438 123.711C140.33 123.619 140.206 123.548 140.071 123.502C139.919 123.454 139.761 123.43 139.602 123.429C139.284 123.43 138.97 123.502 138.684 123.638C138.361 123.783 138.068 123.986 137.82 124.237V123.148C138.101 122.941 138.41 122.776 138.739 122.657C138.905 122.607 139.073 122.568 139.244 122.539C139.431 122.525 139.618 122.525 139.805 122.539C140.097 122.537 140.389 122.58 140.668 122.666C140.916 122.737 141.145 122.861 141.339 123.03C141.528 123.197 141.676 123.405 141.771 123.638C141.874 123.901 141.924 124.182 141.918 124.464C141.92 124.725 141.886 124.985 141.816 125.236C141.744 125.46 141.642 125.674 141.513 125.872C141.375 126.073 141.215 126.259 141.036 126.426C140.852 126.608 140.65 126.78 140.42 126.971L139.85 127.416C139.672 127.55 139.5 127.692 139.336 127.843C139.198 127.968 139.074 128.108 138.969 128.261C138.876 128.381 138.824 128.527 138.822 128.678H142.028L142.037 129.641Z" fill="#00377B"/>
<path d="M148.33 122.621V127.162H149.386V128.07H148.33V129.614H147.218V128.07H144.003V127.162C144.288 126.844 144.591 126.49 144.922 126.117C145.252 125.745 145.519 125.355 145.84 124.955C146.162 124.555 146.382 124.174 146.621 123.774C146.853 123.41 147.058 123.031 147.237 122.639L148.33 122.621ZM147.218 127.162V124.219C146.895 124.797 146.536 125.355 146.143 125.89C145.794 126.372 145.464 126.799 145.16 127.162H147.218Z" fill="#00377B"/>
</g>
<defs>
<linearGradient id="paint0_linear_794_649" x1="91.3118" y1="52.2987" x2="134.713" y2="52.2987" gradientUnits="userSpaceOnUse">
<stop stop-color="white" stop-opacity="0"/>
<stop offset="0.1" stop-color="#DFECF6" stop-opacity="0.23"/>
<stop offset="0.21" stop-color="#C2DCEF" stop-opacity="0.43"/>
<stop offset="0.32" stop-color="#AACEE8" stop-opacity="0.61"/>
<stop offset="0.44" stop-color="#96C2E3" stop-opacity="0.75"/>
<stop offset="0.56" stop-color="#87B9DE" stop-opacity="0.86"/>
<stop offset="0.69" stop-color="#7CB3DB" stop-opacity="0.94"/>
<stop offset="0.83" stop-color="#75AFDA" stop-opacity="0.99"/>
<stop offset="1" stop-color="#73AED9"/>
</linearGradient>
<linearGradient id="paint1_linear_794_649" x1="61.2068" y1="52.4717" x2="117.412" y2="52.4717" gradientUnits="userSpaceOnUse">
<stop stop-color="white" stop-opacity="0"/>
<stop offset="0.1" stop-color="#DFECF6" stop-opacity="0.23"/>
<stop offset="0.21" stop-color="#C2DCEF" stop-opacity="0.43"/>
<stop offset="0.32" stop-color="#AACEE8" stop-opacity="0.61"/>
<stop offset="0.44" stop-color="#96C2E3" stop-opacity="0.75"/>
<stop offset="0.56" stop-color="#87B9DE" stop-opacity="0.86"/>
<stop offset="0.69" stop-color="#7CB3DB" stop-opacity="0.94"/>
<stop offset="0.83" stop-color="#75AFDA" stop-opacity="0.99"/>
<stop offset="1" stop-color="#73AED9"/>
</linearGradient>
<linearGradient id="paint2_linear_794_649" x1="30.9169" y1="52.6027" x2="101.303" y2="52.6027" gradientUnits="userSpaceOnUse">
<stop stop-color="white" stop-opacity="0"/>
<stop offset="0.1" stop-color="#DFECF6" stop-opacity="0.23"/>
<stop offset="0.21" stop-color="#C2DCEF" stop-opacity="0.43"/>
<stop offset="0.32" stop-color="#AACEE8" stop-opacity="0.61"/>
<stop offset="0.44" stop-color="#96C2E3" stop-opacity="0.75"/>
<stop offset="0.56" stop-color="#87B9DE" stop-opacity="0.86"/>
<stop offset="0.69" stop-color="#7CB3DB" stop-opacity="0.94"/>
<stop offset="0.83" stop-color="#75AFDA" stop-opacity="0.99"/>
<stop offset="1" stop-color="#73AED9"/>
</linearGradient>
<linearGradient id="paint3_linear_794_649" x1="0.483406" y1="52.8214" x2="85.2946" y2="52.8214" gradientUnits="userSpaceOnUse">
<stop stop-color="white" stop-opacity="0"/>
<stop offset="0.1" stop-color="#DFECF6" stop-opacity="0.23"/>
<stop offset="0.21" stop-color="#C2DCEF" stop-opacity="0.43"/>
<stop offset="0.32" stop-color="#AACEE8" stop-opacity="0.61"/>
<stop offset="0.44" stop-color="#96C2E3" stop-opacity="0.75"/>
<stop offset="0.56" stop-color="#87B9DE" stop-opacity="0.86"/>
<stop offset="0.69" stop-color="#7CB3DB" stop-opacity="0.94"/>
<stop offset="0.83" stop-color="#75AFDA" stop-opacity="0.99"/>
<stop offset="1" stop-color="#73AED9"/>
</linearGradient>
<clipPath id="clip0_794_649">
<rect width="111.19" height="46.4976" fill="white" transform="translate(38.5 84.751)"/>
</clipPath>
</defs>
</svg>
